<svg xmlns="http://www.w3.org/2000/svg" viewBox="0 0 583.92 563.47"><defs><style>.cls-1{fill:#f9b233;}.cls-2{fill:#fff;}</style></defs><g id="objects"><path class="cls-1" d="M490.64,281.73c0,109.73-88.95,198.68-198.68,198.68h0c-109.72,0-198.68-89-198.68-198.68h0C93.28,172,182.24,83.06,292,83.06h0c109.73,0,198.68,88.95,198.68,198.67Z"/><path class="cls-2" d="M377.59,197.55H206.35a30.64,30.64,0,0,0-30.64,30.63V335.29a30.63,30.63,0,0,0,30.64,30.63H377.59a30.63,30.63,0,0,0,30.63-30.63V228.18A30.64,30.64,0,0,0,377.59,197.55Zm-58.12,91.57-47.62,23.8a8.26,8.26,0,0,1-12-7.38v-47.6a8.26,8.26,0,0,1,12-7.39l47.62,23.8A8.26,8.26,0,0,1,319.47,289.12Z"/></g></svg>