<svg xmlns="http://www.w3.org/2000/svg" viewBox="0 0 583.92 563.47"><defs><style>.cls-1{fill:#f9b233;}.cls-2{fill:#fff;}</style></defs><g id="objects"><path class="cls-1" d="M490.64,281.73c0,109.73-88.95,198.68-198.68,198.68h0c-109.72,0-198.68-89-198.68-198.68h0C93.28,172,182.24,83.06,292,83.06h0c109.73,0,198.68,88.95,198.68,198.67Z"/><path class="cls-2" d="M350.83,266.32l-3.31,26.58a8.87,8.87,0,0,1-8.78,7.78H295.69V411.81q-6.81.62-13.79.61a154.24,154.24,0,0,1-30.37-3V300.68H218.42a5.54,5.54,0,0,1-5.52-5.54V261.88a5.55,5.55,0,0,1,5.52-5.54h33.11V206.46A55.31,55.31,0,0,1,306.73,151h38.63a5.55,5.55,0,0,1,5.52,5.54v33.26a5.55,5.55,0,0,1-5.52,5.54h-27.6a22.12,22.12,0,0,0-22.07,22.17v38.79h46.36A8.88,8.88,0,0,1,350.83,266.32Z"/></g></svg>