<svg xmlns="http://www.w3.org/2000/svg" viewBox="0 0 583.92 563.47"><defs><style>.cls-1{fill:#f9b233;}.cls-2{fill:#fff;}</style></defs><g id="objects"><path class="cls-1" d="M490.64,281.73c0,109.78-88.95,198.78-198.68,198.78h0c-109.72,0-198.68-89-198.68-198.78h0C93.28,172,182.24,83,292,83h0c109.73,0,198.68,89,198.68,198.77Z"/><path class="cls-2" d="M345.87,177.61H238.06a50.32,50.32,0,0,0-50.31,50.31V335.73A50.32,50.32,0,0,0,238.06,386H345.87a50.32,50.32,0,0,0,50.31-50.31V227.92A50.33,50.33,0,0,0,345.87,177.61Zm32.34,154.53a36,36,0,0,1-35.94,35.93H241.65a36,36,0,0,1-35.93-35.93V231.52a36,36,0,0,1,35.93-35.94H342.27a36,36,0,0,1,35.94,35.94Z"/><path class="cls-2" d="M292.06,227.92A53.91,53.91,0,1,0,346,281.83,53.93,53.93,0,0,0,292.06,227.92Zm0,89.84A35.94,35.94,0,1,1,328,281.83,36,36,0,0,1,292.06,317.76Z"/><circle class="cls-2" cx="349.56" cy="224.33" r="10.78"/></g></svg>